<svg xmlns="http://www.w3.org/2000/svg" viewBox="0 0 1200 720" role="img" aria-labelledby="title desc">
  <title id="title">Multimedia Alat Peraga Pendidikan media placeholder</title>
  <desc id="desc">Illustrated concept placeholder, not a project screenshot. Replace with an approved photograph or screenshot of the deployed touchscreen and hardware.</desc>
  <rect width="1200" height="720" fill="#e8efea"/>
  <path d="M0 600h1200M760 0v720" stroke="#c8d8ce" stroke-width="2"/>
  <rect x="800" y="142" width="310" height="220" rx="2" fill="#fcfcfa" stroke="#176b5d" stroke-width="3"/>
  <path d="M824 170h74v64h-74zM917 170h74v64h-74zM1010 170h74v64h-74zM824 251h260" fill="#dce9df" stroke="#86a798" stroke-width="2"/>
  <path d="M954 362v28h-45v13h140v-13h-45v-28" fill="#bdcfc3" stroke="#176b5d" stroke-width="2"/>
  <path d="M664 278h90m-31-31 31 31-31 31" fill="none" stroke="#176b5d" stroke-width="3"/>
  <path d="M560 166v112" stroke="#176b5d" stroke-width="3"/>
  <path d="M538 166h44l-9 29h-26z" fill="#d1ae67" stroke="#8d713d" stroke-width="2"/>
  <path d="M548 195h24l28 54h-80z" fill="#e4d3a5" opacity=".65"/>
  <text x="68" y="103" fill="#176b5d" font-family="monospace" font-size="18" letter-spacing="1">CONCEPT ART / NOT A SCREENSHOT</text>
  <text x="68" y="410" fill="#18221e" font-family="Georgia,serif" font-size="62">Multimedia Alat</text>
  <text x="68" y="482" fill="#18221e" font-family="Georgia,serif" font-size="62">Peraga Pendidikan</text>
  <text x="68" y="545" fill="#53625a" font-family="monospace" font-size="16">FLUTTER / ARDUINO / PHYSICAL INTERACTION</text>
  <text x="68" y="657" fill="#53625a" font-family="monospace" font-size="14">REPLACE WITH APPROVED PROJECT MEDIA</text>
</svg>